<?xml version="1.0" encoding="utf-8"?>
<svg xmlns="http://www.w3.org/2000/svg" viewBox="0 0 20 20" width="20px" height="20px" xmlns:bx="https://boxy-svg.com"><defs><bx:export><bx:file format="svg" path="favicon.svg"/></bx:export></defs><g style="transform-origin: 216.845px 98.7099px;" transform="matrix(0.566219, 0, 0, 0.566219, -219.977329, -101.824747)"><ellipse style="stroke: rgb(0, 0, 0); fill: rgb(128, 0, 32); stroke-width: 0px;" cx="240.038" cy="121.872" rx="17.661" ry="17.661"/><path d="M 246.455 122.377 L 248.255 116.107 L 232.255 116.107 L 234.055 122.377 C 234.175 122.804 234.562 123.101 235.005 123.107 L 245.505 123.107 C 245.953 123.106 246.345 122.808 246.465 122.377 L 246.455 122.377 Z" stroke="#FFFFFF" fill="none" stroke-width="2px"/><path d="M 236.255 123.107 L 236.255 132.107" stroke="#FFFFFF" fill="none" stroke-width="2px"/><path d="M 244.255 132.107 L 244.255 123.107" stroke="#FFFFFF" fill="none" stroke-width="2px"/><path d="M 237.255 116.107 L 238.255 123.107" stroke="#FFFFFF" fill="none" stroke-width="2px"/><path d="M 243.255 116.107 L 242.255 123.107" stroke="#FFFFFF" fill="none" stroke-width="2px"/><path d="M 240.255 116.107 L 240.255 112.107" stroke="#FFFFFF" fill="none" stroke-width="2px"/><path d="M 241.255 112.107 L 239.255 112.107" stroke="#FFFFFF" fill="none" stroke-width="2px"/></g></svg>