<svg xmlns="http://www.w3.org/2000/svg" xmlns:xlink="http://www.w3.org/1999/xlink" width="1080" zoomAndPan="magnify" viewBox="0 0 810 455.249995" height="607" preserveAspectRatio="xMidYMid meet" version="1.0"><path fill="#ffffff" d="M 454.101562 115.574219 C 453.773438 115.574219 451 117.476562 450.59375 117.6875 C 450.191406 117.902344 449.441406 117.957031 449.441406 117.957031 L 359.445312 128.203125 C 359.269531 128.21875 359.089844 128.160156 358.964844 128.023438 C 358.546875 127.574219 357.539062 126.539062 357.019531 126.253906 C 355.445312 125.398438 354.621094 124.953125 352.679688 124.863281 C 349.996094 124.746094 348.832031 125.042969 347.429688 126.023438 C 346.136719 126.929688 345.617188 128.527344 345.425781 129.332031 C 345.355469 129.625 345.109375 129.835938 344.804688 129.859375 L 334.574219 130.261719 C 334.351562 130.273438 334.132812 130.191406 333.960938 130.042969 C 333.367188 129.511719 331.886719 128.183594 330.875 127.238281 C 329.585938 126.023438 322.15625 119.40625 322.15625 119.40625 L 309.160156 109.074219 L 303.105469 104.71875 C 303.105469 104.71875 297.695312 101.8125 296.972656 101.652344 C 296.246094 101.492188 292.933594 101.324219 291 101.652344 C 289.0625 101.976562 287.289062 102.78125 287.289062 102.78125 C 287.289062 102.78125 285.511719 104.882812 285.1875 107.949219 C 284.859375 111.015625 288.578125 117.960938 288.578125 117.960938 L 307.789062 138.140625 L 292.484375 144.835938 C 292.359375 144.890625 292.226562 144.902344 292.089844 144.867188 C 291.257812 144.640625 288.039062 143.777344 285.671875 143.46875 C 282.753906 143.089844 280.53125 143.984375 278.199219 145.015625 C 276.230469 145.886719 276.011719 150.3125 275.984375 151.546875 C 275.984375 151.742188 275.867188 151.914062 275.683594 151.988281 L 238.140625 167.570312 C 237.921875 167.660156 237.921875 167.96875 238.132812 168.0625 C 239.667969 168.753906 243.804688 170.609375 244.070312 170.609375 C 244.378906 170.609375 315.921875 158.84375 323.59375 157.582031 C 324.019531 157.511719 324.457031 157.605469 324.820312 157.84375 L 348.867188 173.703125 C 349.050781 173.828125 349.066406 174.089844 348.902344 174.238281 L 341.527344 180.761719 C 341.324219 180.9375 341.382812 181.261719 341.632812 181.359375 L 344.308594 182.429688 C 344.496094 182.511719 344.710938 182.523438 344.914062 182.464844 L 361.085938 177.5625 C 361.214844 177.523438 361.359375 177.503906 361.496094 177.503906 L 376.394531 177.503906 C 377.035156 177.503906 377.554688 176.996094 377.574219 176.363281 L 377.632812 174.359375 C 377.644531 174.058594 377.855469 173.796875 378.152344 173.734375 L 412.300781 166.378906 C 412.449219 166.351562 412.507812 166.171875 412.40625 166.0625 L 411.214844 164.730469 C 410.957031 164.433594 410.570312 164.277344 410.179688 164.300781 L 375.082031 166.398438 C 374.902344 166.410156 374.753906 166.257812 374.765625 166.078125 L 376.636719 143.824219 C 376.660156 143.558594 376.84375 143.335938 377.105469 143.261719 C 383.183594 141.585938 451.535156 123.484375 452.484375 122.96875 C 453.480469 122.429688 456.609375 117.925781 456.769531 117.28125 C 456.929688 116.636719 454.417969 115.585938 454.101562 115.585938 Z M 369.535156 145.128906 L 362.394531 155.304688 C 362.238281 155.523438 361.9375 155.566406 361.730469 155.40625 L 354.046875 149.539062 C 353.761719 149.320312 353.820312 148.871094 354.152344 148.734375 L 367.722656 143.261719 C 368.265625 143.042969 368.894531 143.144531 369.34375 143.523438 C 369.816406 143.925781 369.902344 144.625 369.535156 145.121094 Z M 369.535156 145.128906 " fill-opacity="1" fill-rule="nonzero"/><path fill="#ffffff" d="M 200.386719 320.035156 L 241.613281 211.160156 L 260.125 211.160156 L 268.792969 283.542969 L 296.238281 211.160156 L 373.738281 211.160156 L 373.738281 230.492188 L 325.300781 230.492188 L 325.300781 253.753906 L 370.023438 253.753906 L 370.023438 271.914062 L 325.300781 271.914062 L 325.300781 301.546875 L 375.109375 301.546875 L 375.109375 320.035156 L 307.136719 320.035156 L 307.136719 227.570312 L 272.398438 320.035156 L 255.390625 320.035156 L 244.628906 249.394531 L 218.359375 320.035156 Z M 200.386719 320.035156 " fill-opacity="1" fill-rule="nonzero"/><path fill="#ffffff" d="M 383.746094 211.160156 L 401.933594 211.160156 L 401.933594 301.332031 L 447.039062 301.332031 L 447.039062 320.035156 L 383.746094 320.035156 Z M 383.746094 211.160156 " fill-opacity="1" fill-rule="nonzero"/><path fill="#ffffff" d="M 500.277344 242.980469 L 518.398438 242.050781 C 518.398438 242.050781 517.113281 230.027344 515.171875 226.261719 C 513.230469 222.496094 509 216.707031 504.804688 214.277344 C 500.605469 211.851562 497.800781 210.199219 491.992188 209.554688 C 486.1875 208.910156 480.574219 208.933594 477.0625 209.5 C 473.554688 210.070312 469.917969 211.277344 467.824219 212.164062 C 465.726562 213.054688 458.941406 217.453125 456.238281 222.175781 C 453.53125 226.902344 451.714844 230.125 451.714844 240.019531 C 451.714844 249.910156 455.871094 255.960938 456.71875 257.453125 C 457.5625 258.945312 462.605469 265.285156 469.511719 267.867188 C 476.414062 270.449219 488.484375 274.566406 492.355469 275.859375 C 496.226562 277.148438 501.796875 280.660156 502.28125 283.40625 C 502.769531 286.152344 502.84375 284.414062 502.84375 288.410156 C 502.84375 292.40625 502.28125 295.875 499.335938 298.21875 C 496.386719 300.5625 494.207031 301.972656 492.792969 302.457031 C 491.378906 302.941406 487.949219 303.429688 485.042969 303.429688 C 482.136719 303.429688 478.910156 303.183594 475.921875 301.167969 C 472.933594 299.148438 470.550781 296.242188 469.261719 293.945312 C 467.972656 291.648438 465.910156 282.28125 465.910156 282.28125 L 448.59375 284.257812 C 448.59375 284.257812 449.601562 293.097656 451.097656 297.460938 C 452.597656 301.824219 453.160156 304.363281 454.691406 306.824219 C 456.226562 309.289062 459.902344 312.957031 461.3125 314.089844 C 462.71875 315.21875 468.414062 318.8125 470.308594 319.375 C 472.203125 319.9375 477.292969 321.839844 483.746094 321.839844 C 490.199219 321.839844 500.738281 320.0625 504.898438 317.761719 C 509.0625 315.457031 513.496094 310.980469 515.394531 307.789062 C 517.296875 304.601562 517.859375 303.066406 518.386719 301.816406 C 518.910156 300.570312 520.445312 295.804688 520.488281 295.039062 C 520.527344 294.277344 521.085938 286.101562 520.488281 281.335938 C 519.890625 276.570312 518.917969 273.34375 517.140625 270.191406 C 515.367188 267.042969 510.640625 261.757812 508.625 260.464844 C 506.605469 259.175781 497.605469 254.855469 495.019531 254.132812 C 492.433594 253.410156 487.3125 251.65625 486.507812 251.414062 C 485.699219 251.171875 476.601562 248.539062 473.535156 246.195312 C 470.46875 243.847656 468.90625 240.085938 468.882812 238.632812 C 468.859375 237.183594 469.183594 234.761719 470.011719 233.292969 C 470.5625 232.316406 472.234375 230.683594 472.730469 230.28125 C 473.777344 229.433594 476.234375 228.109375 477.886719 227.8125 C 479.539062 227.515625 482.285156 227.277344 484.386719 227.320312 C 486.488281 227.363281 489.632812 227.4375 491.492188 228.207031 C 493.347656 228.976562 495.402344 230.226562 496.257812 231.359375 C 497.109375 232.488281 498.433594 234.75 498.761719 236 C 499.085938 237.25 500.269531 242.992188 500.269531 242.992188 Z M 500.277344 242.980469 " fill-opacity="1" fill-rule="nonzero"/><path fill="#ffffff" d="M 601.511719 225.484375 C 593.460938 214.167969 581.792969 209.074219 568.898438 209.074219 C 557.804688 209.074219 545.894531 213.296875 537.980469 222.746094 C 529.089844 233.363281 524.875 248.53125 524.875 265.457031 C 524.875 280.089844 528.820312 295.546875 535.960938 305.570312 C 544.011719 316.871094 556.011719 321.839844 568.898438 321.839844 C 584.429688 321.839844 598.359375 313.699219 606.195312 298.148438 C 610.628906 289.351562 612.921875 276.710938 612.921875 265.464844 C 612.921875 250.839844 608.640625 235.515625 601.511719 225.496094 Z M 590.242188 287.332031 C 585.761719 297.738281 577.785156 303.191406 568.90625 303.191406 C 561.535156 303.191406 554.667969 299.871094 550.0625 292.304688 C 545.976562 285.597656 543.722656 275.25 543.722656 265.457031 C 543.722656 254.125 545.953125 243.777344 551.039062 236.667969 C 555.570312 230.347656 562.558594 227.71875 568.90625 227.71875 C 576.28125 227.71875 583.191406 230.761719 587.796875 238.332031 C 591.875 245.039062 594.09375 255.664062 594.09375 265.453125 C 594.09375 272.980469 592.78125 281.441406 590.246094 287.332031 Z M 590.242188 287.332031 " fill-opacity="1" fill-rule="nonzero"/><path fill="#ffffff" d="M 639.644531 328.332031 L 82.628906 391.730469 L 718.484375 354.167969 L 680.457031 325.011719 L 680.621094 325 L 685.503906 174.09375 C 685.503906 174.09375 686.808594 165.699219 688.761719 162.253906 C 690.714844 158.808594 691.367188 156.226562 693.320312 155.582031 C 695.273438 154.9375 707.871094 147.832031 711.128906 144.175781 C 714.382812 140.515625 721.332031 131.257812 722.855469 128.03125 C 724.375 124.804688 725.839844 120.28125 726.277344 118.074219 C 726.707031 115.867188 727.359375 108.980469 727.359375 108.980469 L 710.800781 108.980469 L 720.03125 88.421875 L 695.160156 88.421875 L 701.566406 54.296875 L 670.671875 54.296875 L 670.671875 52.628906 L 675.558594 52.628906 L 675.394531 34.761719 L 667.574219 27.226562 L 652.046875 27.226562 L 644.226562 34.761719 L 644.058594 52.628906 L 649.382812 52.628906 L 649.382812 54.476562 C 649.382812 54.476562 618.054688 54.296875 618.054688 54.296875 L 624.460938 88.421875 L 599.589844 88.421875 L 608.820312 108.980469 L 592.261719 108.980469 C 592.261719 108.980469 592.910156 115.871094 593.34375 118.074219 C 593.777344 120.28125 595.242188 124.796875 596.765625 128.03125 C 598.285156 131.257812 605.238281 140.515625 608.492188 144.175781 C 611.75 147.832031 624.347656 154.9375 626.300781 155.582031 C 628.253906 156.226562 628.90625 158.808594 630.859375 162.253906 C 632.8125 165.699219 634.113281 174.09375 634.113281 174.09375 L 639.4375 328.339844 M 663.507812 326.550781 L 649.03125 326.550781 L 643.617188 173.761719 L 643.597656 173.195312 L 643.507812 172.632812 C 643.140625 170.257812 641.738281 162.164062 639.128906 157.570312 C 638.714844 156.835938 638.339844 156.097656 637.984375 155.375 C 636.605469 152.605469 634.539062 148.4375 629.578125 146.671875 C 626.933594 145.5 617.457031 139.824219 615.597656 137.863281 C 612.289062 134.144531 606.3125 125.933594 605.359375 123.980469 C 604.578125 122.316406 603.792969 120.140625 603.265625 118.433594 L 623.480469 118.433594 L 617.484375 105.085938 L 614.246094 97.878906 L 635.894531 97.878906 L 633.789062 86.664062 L 629.503906 63.828125 L 649.347656 63.941406 L 658.855469 63.996094 L 658.871094 54.488281 L 658.871094 52.640625 C 658.871094 52.640625 658.894531 43.152344 658.894531 43.152344 L 653.644531 43.152344 L 653.6875 38.816406 L 655.886719 36.691406 L 663.773438 36.691406 L 665.976562 38.816406 L 666.015625 43.152344 L 661.214844 43.152344 L 661.214844 63.757812 L 670.6875 63.757812 C 670.6875 63.757812 690.171875 63.757812 690.171875 63.757812 L 685.871094 86.664062 L 683.765625 97.878906 L 705.414062 97.878906 L 702.175781 105.085938 L 696.179688 118.433594 L 716.394531 118.433594 C 715.863281 120.140625 715.082031 122.3125 714.300781 123.96875 C 713.347656 125.929688 707.375 134.144531 704.082031 137.839844 C 702.207031 139.824219 692.722656 145.5 690.074219 146.671875 C 685.113281 148.4375 683.046875 152.605469 681.667969 155.375 C 681.3125 156.089844 680.941406 156.835938 680.527344 157.570312 C 677.917969 162.164062 676.511719 170.265625 676.144531 172.632812 L 676.058594 173.199219 L 676.039062 173.773438 L 671.429688 316.222656 L 671.304688 325.414062 L 663.5 326.546875 Z M 663.507812 326.550781 " fill-opacity="1" fill-rule="nonzero"/><path fill="#ffffff" d="M 343.917969 387.183594 L 328.832031 387.976562 L 327.28125 396.929688 L 341.378906 396.183594 L 341.039062 398.199219 L 326.980469 398.941406 L 325.289062 408.726562 L 340.703125 407.914062 L 340.332031 409.933594 L 322.453125 410.875 L 326.703125 386.089844 L 344.25 385.164062 L 343.910156 387.183594 Z M 343.917969 387.183594 " fill-opacity="1" fill-rule="nonzero"/><path fill="#ffffff" d="M 346.390625 407.621094 L 360.742188 406.863281 L 360.371094 408.878906 L 343.558594 409.769531 L 347.808594 384.980469 L 350.304688 384.851562 L 346.386719 407.621094 Z M 346.390625 407.621094 " fill-opacity="1" fill-rule="nonzero"/><path fill="#ffffff" d="M 365.804688 408.597656 L 363.304688 408.726562 L 367.554688 383.9375 L 370.054688 383.808594 Z M 365.804688 408.597656 " fill-opacity="1" fill-rule="nonzero"/><path fill="#ffffff" d="M 392.988281 384.597656 L 384.03125 385.070312 L 380.152344 407.839844 L 377.65625 407.96875 L 381.535156 385.199219 L 372.355469 385.6875 L 372.695312 383.667969 L 393.324219 382.578125 Z M 392.988281 384.597656 " fill-opacity="1" fill-rule="nonzero"/><path fill="#ffffff" d="M 413.246094 383.53125 L 398.164062 384.324219 L 396.613281 393.273438 L 410.707031 392.527344 L 410.371094 394.546875 L 396.308594 395.289062 L 394.617188 405.074219 L 410.03125 404.261719 L 409.660156 406.28125 L 391.78125 407.222656 L 396.03125 382.4375 L 413.578125 381.511719 L 413.242188 383.53125 Z M 413.246094 383.53125 " fill-opacity="1" fill-rule="nonzero"/><path fill="#ffffff" d="M 448.457031 404.238281 L 442.4375 404.558594 L 440.09375 399.195312 L 430.367188 399.710938 L 428.527344 405.292969 L 422.652344 405.601562 L 431.308594 380.546875 L 437.214844 380.234375 Z M 434.5625 386.40625 L 431.558594 395.707031 L 438.496094 395.339844 Z M 434.5625 386.40625 " fill-opacity="1" fill-rule="nonzero"/><path fill="#ffffff" d="M 466.3125 383.324219 L 458.457031 383.738281 L 459.503906 403.660156 L 453.746094 403.960938 L 452.695312 384.039062 L 444.839844 384.453125 L 444.597656 379.878906 L 466.070312 378.746094 Z M 466.3125 383.324219 " fill-opacity="1" fill-rule="nonzero"/><path fill="#ffffff" d="M 490.152344 399.898438 C 488.242188 401.816406 485.535156 402.867188 482.035156 403.054688 C 478.242188 403.257812 475.128906 402.238281 472.695312 400.011719 C 470.253906 397.78125 468.9375 394.730469 468.734375 390.855469 C 468.539062 387.183594 469.550781 384.070312 471.757812 381.519531 C 473.96875 378.964844 477.015625 377.585938 480.90625 377.378906 C 484.015625 377.214844 486.664062 377.90625 488.855469 379.445312 C 491.046875 380.984375 492.320312 383.023438 492.675781 385.5625 L 487.058594 385.859375 C 486.691406 384.519531 485.980469 383.507812 484.925781 382.816406 C 483.871094 382.121094 482.574219 381.8125 481.03125 381.898438 C 479.4375 381.980469 478.125 382.472656 477.074219 383.363281 C 476.035156 384.257812 475.324219 385.324219 474.945312 386.566406 C 474.566406 387.804688 474.417969 389.148438 474.496094 390.59375 C 474.625 393.117188 475.359375 395.097656 476.683594 396.53125 C 478.011719 397.96875 479.726562 398.632812 481.835938 398.519531 C 485.332031 398.335938 487.234375 396.394531 487.53125 392.699219 L 493.21875 392.398438 C 493.089844 395.488281 492.066406 397.992188 490.152344 399.910156 Z M 490.152344 399.898438 " fill-opacity="1" fill-rule="nonzero"/><path fill="#ffffff" d="M 526.921875 377.539062 L 517.964844 378.011719 L 514.085938 400.78125 L 511.589844 400.910156 L 515.464844 378.144531 L 506.289062 378.628906 L 506.628906 376.609375 L 527.253906 375.519531 L 526.914062 377.539062 Z M 526.921875 377.539062 " fill-opacity="1" fill-rule="nonzero"/><path fill="#ffffff" d="M 539.074219 374.898438 C 540.933594 374.800781 542.324219 374.828125 543.238281 374.988281 C 544.695312 375.207031 545.871094 375.816406 546.753906 376.800781 C 547.640625 377.789062 548.121094 379.019531 548.199219 380.480469 C 548.292969 382.316406 547.765625 383.898438 546.605469 385.222656 C 545.445312 386.550781 543.894531 387.355469 541.945312 387.644531 C 544.148438 387.941406 545.316406 389.363281 545.445312 391.914062 C 545.476562 392.464844 545.46875 393.292969 545.425781 394.398438 C 545.386719 395.507812 545.378906 396.335938 545.410156 396.886719 C 545.457031 397.78125 545.628906 398.519531 545.929688 399.101562 L 543.363281 399.238281 C 543.113281 398.699219 542.964844 398.027344 542.921875 397.222656 C 542.910156 396.992188 542.933594 396.253906 542.988281 394.992188 C 543.046875 393.738281 543.054688 392.785156 543.023438 392.144531 C 542.988281 391.433594 542.863281 390.847656 542.65625 390.386719 C 542.449219 389.925781 542.199219 389.570312 541.917969 389.320312 C 541.632812 389.070312 541.21875 388.894531 540.671875 388.78125 C 540.128906 388.667969 539.613281 388.609375 539.132812 388.605469 C 538.65625 388.59375 538.007812 388.609375 537.203125 388.652344 L 530.011719 389.03125 L 528.125 400.03125 L 525.667969 400.160156 L 529.882812 375.375 L 539.058594 374.886719 Z M 530.375 387.117188 L 537.828125 386.726562 C 540.691406 386.574219 542.664062 386.082031 543.746094 385.242188 C 544.410156 384.746094 544.917969 384.105469 545.28125 383.316406 C 545.640625 382.53125 545.800781 381.695312 545.753906 380.824219 C 545.695312 379.652344 545.273438 378.710938 544.5 377.988281 C 543.953125 377.492188 543.300781 377.167969 542.53125 377.023438 C 541.761719 376.882812 540.550781 376.851562 538.886719 376.941406 L 532.023438 377.304688 Z M 530.375 387.117188 " fill-opacity="1" fill-rule="nonzero"/><path fill="#ffffff" d="M 570.171875 397.820312 L 567.605469 397.957031 L 565.839844 390.320312 L 554.023438 390.941406 L 549.546875 398.90625 L 546.71875 399.054688 L 561.394531 373.714844 L 564.144531 373.574219 Z M 559.476562 381.339844 L 555.09375 388.988281 L 565.40625 388.445312 L 563.476562 380.40625 C 562.972656 378.269531 562.632812 376.699219 562.460938 375.699219 C 562.042969 376.6875 561.050781 378.570312 559.480469 381.339844 Z M 559.476562 381.339844 " fill-opacity="1" fill-rule="nonzero"/><path fill="#ffffff" d="M 575.199219 397.554688 L 572.699219 397.683594 L 576.953125 372.898438 L 579.449219 372.769531 Z M 575.199219 397.554688 " fill-opacity="1" fill-rule="nonzero"/><path fill="#ffffff" d="M 601.1875 396.1875 L 598.433594 396.328125 L 589.003906 379.441406 C 588.058594 377.742188 587.289062 376.242188 586.707031 374.933594 C 586.304688 377.972656 585.984375 380.140625 585.761719 381.433594 L 583.089844 397.136719 L 580.667969 397.257812 L 584.957031 372.464844 L 587.671875 372.324219 L 596.941406 388.984375 C 598.214844 391.214844 599.03125 392.832031 599.40625 393.820312 C 599.554688 392.960938 599.75 391.664062 599.992188 389.925781 C 600.234375 388.183594 600.425781 386.886719 600.578125 386.027344 L 603.050781 371.511719 L 605.402344 371.390625 L 601.1875 396.175781 Z M 601.1875 396.1875 " fill-opacity="1" fill-rule="nonzero"/><path fill="#ffffff" d="M 609.1875 395.765625 L 606.6875 395.898438 L 610.9375 371.109375 L 613.4375 370.980469 Z M 609.1875 395.765625 " fill-opacity="1" fill-rule="nonzero"/><path fill="#ffffff" d="M 635.175781 394.394531 L 632.421875 394.542969 L 622.992188 377.652344 C 622.042969 375.953125 621.273438 374.457031 620.695312 373.152344 C 620.292969 376.183594 619.972656 378.355469 619.746094 379.652344 L 617.078125 395.351562 L 614.65625 395.484375 L 618.941406 370.691406 L 621.660156 370.546875 L 630.929688 387.207031 C 632.203125 389.4375 633.023438 391.054688 633.390625 392.042969 C 633.539062 391.183594 633.734375 389.890625 633.976562 388.148438 C 634.214844 386.414062 634.410156 385.113281 634.5625 384.253906 L 637.039062 369.738281 L 639.390625 369.613281 L 635.175781 394.398438 Z M 635.175781 394.394531 " fill-opacity="1" fill-rule="nonzero"/><path fill="#ffffff" d="M 663.324219 392.914062 L 661.636719 393.003906 L 661.933594 388.847656 C 660.726562 390.5625 659.40625 391.835938 657.972656 392.660156 C 656.546875 393.480469 654.761719 393.949219 652.636719 394.0625 C 649.359375 394.234375 646.734375 393.441406 644.765625 391.683594 C 642.792969 389.925781 641.722656 387.414062 641.550781 384.160156 C 641.324219 379.914062 642.460938 376.273438 644.949219 373.230469 C 647.441406 370.1875 650.898438 368.554688 655.324219 368.324219 C 658.285156 368.167969 660.699219 368.75 662.558594 370.082031 C 664.417969 371.40625 665.453125 373.296875 665.65625 375.746094 L 663.234375 375.871094 C 662.960938 373.90625 662.128906 372.453125 660.742188 371.511719 C 659.355469 370.570312 657.546875 370.164062 655.320312 370.28125 C 653.484375 370.375 651.816406 370.851562 650.3125 371.683594 C 648.808594 372.527344 647.601562 373.589844 646.671875 374.894531 C 645.746094 376.195312 645.054688 377.632812 644.597656 379.210938 C 644.144531 380.785156 643.960938 382.398438 644.042969 384.050781 C 644.183594 386.710938 645.03125 388.753906 646.59375 390.179688 C 648.152344 391.605469 650.269531 392.246094 652.933594 392.101562 C 655.894531 391.949219 658.179688 390.972656 659.789062 389.191406 C 661.398438 387.402344 662.441406 385.128906 662.910156 382.363281 L 653.882812 382.839844 L 654.21875 380.890625 L 665.414062 380.296875 L 663.316406 392.894531 Z M 663.324219 392.914062 " fill-opacity="1" fill-rule="nonzero"/></svg>