<?xml version="1.0" standalone="no"?>
<!DOCTYPE svg PUBLIC "-//W3C//DTD SVG 1.1//EN" "http://www.w3.org/Graphics/SVG/1.1/DTD/svg11.dtd">
<svg xmlns="http://www.w3.org/2000/svg" id="Capa_1" data-name="Capa 1" viewBox="0 0 1366 768" width="1366" height="768">
  <defs>
    <style>
      .cls-1 {
        fill: #bc1332;
      }
    </style>
  </defs>
  <path d="M765.94,195.23c-.55,0-5.24,3.21-5.92,3.57-.68.36-1.95.45-1.95.45l-152.02,17.31c-.3.03-.6-.07-.81-.3-.71-.76-2.41-2.51-3.29-2.99-2.66-1.45-4.05-2.2-7.33-2.35-4.53-.2-6.5.3-8.87,1.96-2.18,1.53-3.06,4.23-3.38,5.59-.12.49-.54.85-1.05.89l-17.28.68c-.38.02-.75-.12-1.04-.37-1-.9-3.5-3.14-5.21-4.74-2.18-2.05-14.73-13.23-14.73-13.23l-21.95-17.45-10.23-7.36s-9.14-4.91-10.36-5.18c-1.23-.27-6.82-.55-10.09,0s-6.27,1.91-6.27,1.91c0,0-3,3.55-3.55,8.73-.55,5.18,5.73,16.91,5.73,16.91l32.45,34.09-25.85,11.31c-.21.09-.44.11-.67.05-1.4-.38-6.84-1.84-10.84-2.36-4.93-.64-8.68.87-12.62,2.61-3.33,1.47-3.7,8.95-3.74,11.03,0,.33-.2.62-.51.75l-63.42,26.32c-.37.15-.37.67-.01.83,2.59,1.17,9.58,4.3,10.03,4.3.52,0,121.37-19.87,134.33-22,.72-.12,1.46.04,2.07.44l40.62,26.79c.31.21.34.65.06.9l-12.46,11.02c-.34.3-.24.85.18,1.01l4.52,1.81c.32.14.68.16,1.02.06l27.32-8.28c.22-.07.46-.1.69-.1h25.17c1.08,0,1.96-.86,1.99-1.93l.1-3.38c.02-.51.38-.95.88-1.06l57.68-12.42c.25-.05.35-.35.18-.54l-2.01-2.25c-.44-.5-1.09-.76-1.75-.72l-59.29,3.54c-.3.02-.55-.24-.53-.54l3.16-37.59c.04-.45.35-.83.79-.95,10.27-2.83,125.73-33.41,127.33-34.28,1.68-.91,6.97-8.52,7.24-9.61.27-1.09-3.97-2.86-4.51-2.86ZM623.09,245.15l-12.06,17.19c-.26.37-.77.44-1.12.17l-12.98-9.91c-.48-.37-.38-1.13.18-1.36l22.92-9.24c.92-.37,1.98-.2,2.74.44.8.68.94,1.86.32,2.7Z"/>
  <g>
    <polygon class="cls-1" points="337.37 540.6 407.01 356.69 438.28 356.69 452.92 478.96 499.28 356.69 630.19 356.69 630.19 389.35 548.37 389.35 548.37 428.64 623.92 428.64 623.92 459.32 548.37 459.32 548.37 509.37 632.51 509.37 632.51 540.6 517.69 540.6 517.69 384.41 459.01 540.6 430.28 540.6 412.1 421.28 367.73 540.6 337.37 540.6"/>
    <polygon class="cls-1" points="647.1 356.69 677.82 356.69 677.82 509.01 754.01 509.01 754.01 540.6 647.1 540.6 647.1 356.69"/>
    <path class="cls-1" d="M843.94,410.44l30.61-1.57s-2.17-20.31-5.45-26.67-10.42-16.14-17.51-20.24-11.83-6.89-21.64-7.98-19.29-1.05-25.22-.09-12.07,3-15.61,4.5-15,8.93-19.57,16.91-7.64,13.43-7.64,30.14,7.02,26.93,8.45,29.45,9.95,13.23,21.61,17.59,32.05,11.32,38.59,13.5,15.95,8.11,16.77,12.75.95,1.7.95,8.45-.95,12.61-5.93,16.57-8.66,6.34-11.05,7.16-8.18,1.64-13.09,1.64-10.36-.41-15.41-3.82-9.07-8.32-11.25-12.2-5.66-19.7-5.66-19.7l-29.25,3.34s1.7,14.93,4.23,22.3,3.48,11.66,6.07,15.82,8.8,10.36,11.18,12.27,12,7.98,15.2,8.93,11.8,4.16,22.7,4.16,28.7-3,35.73-6.89,14.52-11.45,17.73-16.84,4.16-7.98,5.05-10.09,3.48-10.16,3.55-11.45,1.01-15.1,0-23.15-2.65-13.5-5.65-18.82-10.98-14.25-14.39-16.43-18.61-9.48-22.98-10.7-13.02-4.18-14.38-4.59-16.73-4.86-21.91-8.82-7.82-10.32-7.86-12.77.51-6.54,1.91-9.02c.93-1.65,3.75-4.41,4.59-5.09,1.77-1.43,5.92-3.67,8.71-4.17s7.43-.9,10.98-.83,8.86.2,12,1.5,6.61,3.41,8.05,5.32,3.68,5.73,4.23,7.84,2.55,11.81,2.55,11.81Z"/>
    <path class="cls-1" d="M1014.95,380.89c-13.6-19.12-33.31-27.72-55.09-27.72-18.74,0-38.86,7.13-52.23,23.09-15.02,17.94-22.14,43.56-22.14,72.15,0,24.72,6.67,50.83,18.73,67.76,13.6,19.09,33.87,27.48,55.64,27.48,26.23,0,49.76-13.75,63-40.02,7.49-14.86,11.36-36.21,11.36-55.21,0-24.7-7.23-50.59-19.27-67.51ZM995.91,485.36c-7.57,17.58-21.04,26.79-36.04,26.79-12.45,0-24.05-5.61-31.83-18.39-6.9-11.33-10.71-28.81-10.71-45.35,0-19.14,3.77-36.62,12.36-48.63,7.65-10.68,19.46-15.12,30.18-15.12,12.46,0,24.13,5.14,31.91,17.93,6.89,11.33,10.64,29.28,10.64,45.81,0,12.72-2.22,27.01-6.5,36.96Z"/>
  </g>
  <path d="M1079.36,554.62l-940.91,107.09,1074.09-63.45-64.24-49.25.28-.02,8.25-254.91s2.2-14.18,5.5-20c3.3-5.82,4.4-10.18,7.7-11.27,3.3-1.09,24.58-13.09,30.08-19.27,5.5-6.18,17.24-21.82,19.81-27.27,2.57-5.45,5.04-13.09,5.78-16.82.73-3.73,1.83-15.36,1.83-15.36h-27.97l15.59-34.73h-42.01l10.82-57.64h-52.19v-2.82h8.26l-.28-30.18-13.21-12.73h-26.23l-13.21,12.73-.28,30.18h8.99v3.12s-52.92-.3-52.92-.3l10.82,57.64h-42.01l15.59,34.73h-27.97s1.1,11.64,1.83,15.36c.73,3.73,3.21,11.36,5.78,16.82,2.57,5.45,14.31,21.09,19.81,27.27,5.5,6.18,26.78,18.18,30.08,19.27,3.3,1.09,4.4,5.45,7.7,11.27s5.5,20,5.5,20l8.99,260.55M1119.67,551.61h-24.45l-9.15-258.09-.03-.96-.15-.95c-.62-4.01-2.99-17.68-7.4-25.44-.7-1.24-1.33-2.49-1.93-3.71-2.33-4.68-5.82-11.72-14.2-14.7-4.47-1.98-20.48-11.57-23.62-14.88-5.59-6.28-15.68-20.15-17.29-23.45-1.32-2.81-2.65-6.49-3.54-9.37h34.15l-10.13-22.55-5.47-12.17h36.57l-3.56-18.95-7.24-38.57,33.52.19,16.06.09.03-16.06v-3.12s.04-16.03.04-16.03h-8.87l.07-7.32,3.72-3.59h13.32l3.72,3.59.07,7.32h-8.11v34.81h16s32.91,0,32.91,0l-7.26,38.69-3.56,18.95h36.57l-5.47,12.17-10.13,22.55h34.15c-.9,2.88-2.22,6.55-3.54,9.35-1.61,3.31-11.7,17.19-17.26,23.43-3.17,3.35-19.19,12.94-23.66,14.92-8.38,2.98-11.87,10.02-14.2,14.7-.6,1.21-1.23,2.47-1.93,3.71-4.41,7.76-6.78,21.44-7.4,25.44l-.15.96-.03.97-7.79,240.62-.21,15.53-13.18,1.91Z"/>
  <g>
    <path d="M579.82,654.03l-25.48,1.34-2.62,15.12,23.81-1.26-.57,3.41-23.75,1.25-2.86,16.53,26.04-1.37-.63,3.41-30.2,1.59,7.18-41.87,29.64-1.56-.57,3.41Z"/>
    <path d="M584,688.55l24.24-1.28-.63,3.41-28.4,1.5,7.18-41.87,4.22-.22-6.62,38.46Z"/>
    <path d="M616.79,690.2l-4.22.22,7.18-41.87,4.22-.22-7.18,41.87Z"/>
    <path d="M662.71,649.66l-15.13.8-6.55,38.46-4.22.22,6.55-38.46-15.5.82.57-3.41,34.85-1.84-.57,3.41Z"/>
    <path d="M696.93,647.86l-25.48,1.34-2.62,15.12,23.81-1.26-.57,3.41-23.75,1.25-2.86,16.53,26.04-1.37-.63,3.41-30.2,1.59,7.18-41.87,29.64-1.56-.57,3.41Z"/>
    <path d="M756.41,682.84l-10.17.54-3.96-9.06-16.43.87-3.11,9.43-9.92.52,14.62-42.32,9.98-.53,18.99,40.55ZM732.94,652.72l-5.08,15.71,11.72-.62-6.64-15.09Z"/>
    <path d="M786.57,647.51l-13.27.7,1.77,33.65-9.73.51-1.77-33.65-13.27.7-.41-7.73,36.27-1.91.41,7.73Z"/>
    <path d="M826.84,675.51c-3.23,3.24-7.8,5.01-13.71,5.33-6.41.34-11.67-1.38-15.78-5.14-4.12-3.77-6.35-8.92-6.69-15.47-.33-6.2,1.38-11.46,5.11-15.77,3.73-4.31,8.88-6.64,15.45-6.99,5.25-.28,9.73.89,13.43,3.49,3.7,2.6,5.85,6.04,6.45,10.33l-9.49.5c-.62-2.26-1.82-3.97-3.6-5.14-1.78-1.17-3.97-1.69-6.58-1.55-2.69.14-4.91.97-6.68,2.48-1.76,1.51-2.96,3.31-3.6,5.41-.64,2.09-.89,4.36-.76,6.8.22,4.26,1.46,7.61,3.7,10.03,2.24,2.43,5.14,3.55,8.7,3.36,5.91-.31,9.12-3.59,9.62-9.83l9.61-.51c-.22,5.22-1.95,9.45-5.18,12.69Z"/>
    <path d="M888.95,637.74l-15.13.8-6.55,38.46-4.22.22,6.55-38.46-15.5.82.57-3.41,34.84-1.84-.57,3.41Z"/>
    <path d="M909.48,633.28c3.14-.17,5.49-.12,7.03.15,2.46.37,4.45,1.4,5.94,3.06,1.5,1.67,2.31,3.75,2.44,6.22.16,3.1-.73,5.77-2.69,8.01-1.96,2.24-4.58,3.6-7.87,4.09,3.72.5,5.69,2.9,5.91,7.21.05.93.04,2.33-.03,4.2-.07,1.87-.08,3.27-.03,4.2.08,1.51.37,2.76.88,3.74l-4.34.23c-.42-.91-.67-2.04-.74-3.4-.02-.39.02-1.64.11-3.77.1-2.12.11-3.73.06-4.81-.06-1.2-.27-2.19-.62-2.97-.35-.78-.77-1.38-1.25-1.8-.48-.42-1.18-.72-2.1-.91-.92-.19-1.79-.29-2.6-.3-.81-.02-1.9.01-3.26.08l-12.15.64-3.19,18.58-4.15.22,7.12-41.87,15.5-.82ZM894.78,653.92l12.59-.66c4.84-.26,8.17-1.09,10-2.51,1.12-.84,1.98-1.92,2.59-3.25.61-1.33.88-2.74.8-4.21-.1-1.98-.81-3.57-2.12-4.79-.92-.84-2.02-1.39-3.32-1.63s-3.35-.29-6.16-.14l-11.59.61-2.79,16.58Z"/>
    <path d="M962.01,672l-4.34.23-2.98-12.9-19.96,1.05-7.56,13.45-4.78.25,24.79-42.8,4.65-.24,10.18,40.96ZM943.94,644.16l-7.4,12.92,17.42-.92-3.26-13.58c-.85-3.61-1.43-6.26-1.72-7.95-.7,1.67-2.38,4.85-5.03,9.53Z"/>
    <path d="M970.5,671.55l-4.22.22,7.18-41.87,4.22-.22-7.18,41.87Z"/>
    <path d="M1014.4,669.24l-4.65.24-15.93-28.53c-1.6-2.87-2.9-5.4-3.88-7.61-.68,5.13-1.22,8.79-1.6,10.98l-4.51,26.52-4.09.21,7.24-41.88,4.59-.24,15.66,28.14c2.15,3.77,3.53,6.5,4.16,8.17.25-1.45.58-3.64.99-6.58s.73-5.13.99-6.58l4.18-24.52,3.97-.21-7.12,41.87Z"/>
    <path d="M1027.91,668.53l-4.22.22,7.18-41.87,4.22-.22-7.18,41.87Z"/>
    <path d="M1071.81,666.21l-4.65.25-15.93-28.53c-1.6-2.87-2.9-5.4-3.88-7.6-.68,5.12-1.22,8.79-1.6,10.98l-4.51,26.52-4.09.22,7.24-41.88,4.59-.24,15.66,28.14c2.15,3.77,3.54,6.5,4.16,8.17.25-1.45.58-3.64.99-6.58.4-2.93.73-5.13.99-6.58l4.18-24.52,3.97-.21-7.12,41.87Z"/>
    <path d="M1119.36,663.71l-2.85.15.5-7.02c-2.04,2.9-4.27,5.05-6.69,6.44-2.41,1.39-5.42,2.18-9.01,2.37-5.54.29-9.97-1.05-13.3-4.02-3.33-2.97-5.14-7.21-5.43-12.71-.38-7.17,1.54-13.32,5.74-18.46,4.21-5.14,10.05-7.9,17.53-8.29,5-.26,9.08.72,12.22,2.97,3.14,2.24,4.89,5.43,5.23,9.57l-4.09.21c-.46-3.32-1.87-5.77-4.21-7.36-2.34-1.59-5.4-2.28-9.16-2.08-3.1.16-5.92.96-8.46,2.37-2.54,1.42-4.58,3.22-6.15,5.42-1.56,2.2-2.73,4.63-3.5,7.29-.77,2.66-1.08,5.39-.94,8.18.24,4.49,1.67,7.94,4.31,10.35,2.63,2.41,6.21,3.49,10.71,3.25,5-.26,8.86-1.91,11.58-4.92,2.72-3.02,4.48-6.86,5.27-11.53l-15.25.8.57-3.29,18.91-1-3.54,21.28Z"/>
  </g>
</svg>